<svg width="40" height="40" viewBox="0 0 40 40" xmlns="http://www.w3.org/2000/svg">
  <defs>
    <linearGradient id="ring" x1="8" y1="8" x2="32" y2="32" gradientUnits="userSpaceOnUse">
      <stop stop-color="#312E81"/>
      <stop offset="1" stop-color="#4C1D95"/>
    </linearGradient>
    <linearGradient id="medal" x1="11" y1="10" x2="27" y2="28" gradientUnits="userSpaceOnUse">
      <stop stop-color="#FFE7CD"/>
      <stop offset="1" stop-color="#F3BE8E"/>
    </linearGradient>
    <linearGradient id="bug" x1="15" y1="14" x2="25" y2="27" gradientUnits="userSpaceOnUse">
      <stop stop-color="#F0A24B"/>
      <stop offset="1" stop-color="#D17C2B"/>
    </linearGradient>
    <radialGradient id="halo" cx="50%" cy="45%" r="50%">
      <stop offset="0%" stop-color="#C4B5FD" stop-opacity="0.5"/>
      <stop offset="100%" stop-color="#C4B5FD" stop-opacity="0"/>
    </radialGradient>
  </defs>
  <circle cx="20" cy="20" r="16.7" fill="url(#ring)"/>
  <circle cx="20" cy="20" r="16.7" fill="none" stroke="#A78BFA" stroke-width="0.9"/>
  <circle cx="20" cy="20" r="15.4" fill="none" stroke="#FFFFFF" stroke-opacity="0.2" stroke-width="0.45"/>
  <circle cx="20" cy="19.4" r="10.8" fill="url(#halo)"/>
  <circle cx="20" cy="20" r="9.3" fill="url(#medal)"/>
  <circle cx="20" cy="20" r="9.3" fill="none" stroke="#FFF0DC" stroke-width="0.95"/>
  <circle cx="20" cy="20" r="8.5" fill="none" stroke="#BC784A" stroke-opacity="0.65" stroke-width="0.7"/>
  <path d="M17 22.2 13.8 20.7M17 24.7h-3.8M17.4 27.2l-2.8 2.4M23 22.2l3.2-1.5M23 24.7h3.8M22.6 27.2l2.8 2.4" stroke="#1A1B2E" stroke-width="1.1" stroke-linecap="round" stroke-linejoin="round"/>
  <rect x="16.9" y="17.9" width="6.2" height="8.7" rx="1.5" fill="url(#bug)" stroke="#15172A" stroke-width="0.72"/>
  <rect x="17.8" y="14.7" width="4.4" height="3.4" rx="1.4" fill="url(#bug)" stroke="#15172A" stroke-width="0.72"/>
  <path d="M20 18.7v7.1M18 21.1h4M18 23.2h4" stroke="#1A1B2E" stroke-opacity="0.5" stroke-width="0.5" stroke-linecap="round"/>
  <circle cx="18.7" cy="16.2" r="0.48" fill="#15172A"/>
  <circle cx="21.3" cy="16.2" r="0.48" fill="#15172A"/>
  <path d="M18.6 15 17 13.1M21.4 15 23 13.1" stroke="#15172A" stroke-width="0.78" stroke-linecap="round"/>
  <circle cx="16.8" cy="12.9" r="0.6" fill="#38BDF8"/>
  <circle cx="23.2" cy="12.9" r="0.6" fill="#38BDF8"/>
  <g fill="none" stroke="#F4F4FF" stroke-linecap="round">
    <circle cx="29.7" cy="17" r="3.35" stroke-width="1.06"/>
    <path d="M29.7 12.9v8.2M25.6 17h8.2" stroke-width="0.98"/>
  </g>
  <path d="M25.4 26.8 30.2 31.5" stroke="#FB7185" stroke-width="1.05" stroke-linecap="round"/>
  <circle cx="31.2" cy="32.5" r="2.08" fill="#FB7185" stroke="#FFE4E6" stroke-width="0.72"/>
</svg>
